<svg width="22" height="24" viewBox="0 0 22 24" fill="none" xmlns="http://www.w3.org/2000/svg">
<g clip-path="url(#clip0_182_501)">
<path d="M6.45139 13H2.89028C2.65416 13 2.42772 13.1054 2.26076 13.2929C2.0938 13.4804 2 13.7348 2 14V22C2 22.2652 2.0938 22.5196 2.26076 22.7071C2.42772 22.8946 2.65416 23 2.89028 23H6.45139C6.6875 23 6.91395 22.8946 7.08091 22.7071C7.24787 22.5196 7.34167 22.2652 7.34167 22V14C7.34167 13.7348 7.24787 13.4804 7.08091 13.2929C6.91395 13.1054 6.6875 13 6.45139 13ZM5.56111 21H3.78056V15H5.56111V21ZM20.6958 9H17.1347C16.8986 9 16.6722 9.10536 16.5052 9.29289C16.3382 9.48043 16.2444 9.73478 16.2444 10V22C16.2444 22.2652 16.3382 22.5196 16.5052 22.7071C16.6722 22.8946 16.8986 23 17.1347 23H20.6958C20.9319 23 21.1584 22.8946 21.3253 22.7071C21.4923 22.5196 21.5861 22.2652 21.5861 22V10C21.5861 9.73478 21.4923 9.48043 21.3253 9.29289C21.1584 9.10536 20.9319 9 20.6958 9ZM19.8055 21H18.025V11H19.8055V21ZM13.5736 1H10.0125C9.77638 1 9.54994 1.10536 9.38298 1.29289C9.21602 1.48043 9.12222 1.73478 9.12222 2V22C9.12222 22.2652 9.21602 22.5196 9.38298 22.7071C9.54994 22.8946 9.77638 23 10.0125 23H13.5736C13.8097 23 14.0362 22.8946 14.2031 22.7071C14.3701 22.5196 14.4639 22.2652 14.4639 22V2C14.4639 1.73478 14.3701 1.48043 14.2031 1.29289C14.0362 1.10536 13.8097 1 13.5736 1ZM12.6833 21H10.9028V3H12.6833V21Z" fill="#7A67C7"/>
</g>
<defs>
<clipPath id="clip0_182_501">
<rect width="21.3667" height="24" fill="white" transform="translate(0.314941)"/>
</clipPath>
</defs>
</svg>
